<?xml version="1.0" encoding="UTF-8"?>
<svg width="20px" height="20px" viewBox="0 0 20 20" version="1.1" xmlns="http://www.w3.org/2000/svg" xmlns:xlink="http://www.w3.org/1999/xlink">
    <title>ic_select_n备份 20</title>
    <g id="在线翻译" stroke="none" stroke-width="1" fill="none" fill-rule="evenodd" opacity="0.699999988">
        <g id="任务分配-文件分配copy、分配文件查看copy" transform="translate(-672.000000, -721.000000)">
            <g id="编组-2备份-2" transform="translate(597.000000, 716.000000)">
                <g id="ic_select_n备份-20" transform="translate(85.000000, 15.000000) rotate(90.000000) translate(-85.000000, -15.000000) translate(75.000000, 5.000000)">
                    <rect id="矩形" stroke="#979797" fill="#D8D8D8" opacity="0" transform="translate(10.000000, 10.000000) rotate(90.000000) translate(-10.000000, -10.000000) " x="0.5" y="0.5" width="19" height="19"></rect>
                    <path d="M7.7112782,15.7400568 L13.7067669,10.6070061 C13.8931673,10.4536348 14,10.2325497 14,10.0002192 C14,9.76792263 13.8932331,9.5468889 13.7067669,9.39343237 L7.7112782,4.26038167 C7.42857143,4.00978292 7.01654135,3.93235073 6.65263158,4.06187367 C6.2887218,4.19139662 6.03458647,4.50394112 6,4.86716852 L6,15.1290463 C6.03308271,15.4936816 6.28571429,15.807634 6.65112782,15.9371569 C7.01654135,16.0680877 7.42857143,15.9906555 7.7112782,15.7400568 Z" id="路径" fill="#C2C2C2" fill-rule="nonzero" transform="translate(10.000000, 10.000000) rotate(-360.000000) translate(-10.000000, -10.000000) "></path>
                </g>
            </g>
        </g>
    </g>
</svg>