<?xml version="1.0" encoding="UTF-8"?>
<svg width="17px" height="17px" viewBox="0 0 17 17" version="1.1" xmlns="http://www.w3.org/2000/svg" xmlns:xlink="http://www.w3.org/1999/xlink">
    <title>收藏</title>
    <defs>
        <path d="M9.39673608,1.81698575 L10.7654168,4.59023572 C10.9110788,4.88537919 11.1926444,5.08994857 11.5183545,5.13727702 L14.5788176,5.58198833 C15.1253624,5.66140595 15.5040439,6.1688488 15.4246263,6.71539367 C15.3930018,6.9330307 15.2905146,7.13417311 15.1330309,7.28768171 L12.9184591,9.44635576 C12.682773,9.67609292 12.5752245,10.0070931 12.6308624,10.3314872 L13.1536519,13.3795839 C13.247013,13.9239203 12.8814251,14.4408762 12.3370887,14.5342372 C12.120331,14.5714141 11.897363,14.5360994 11.7027025,14.4337603 L8.96534113,12.9946443 C8.6740171,12.8414862 8.3259829,12.8414862 8.03465887,12.9946443 L5.29729751,14.4337603 C4.80845292,14.6907612 4.20382577,14.5028146 3.94682496,14.01397 C3.84448589,13.8193096 3.80917121,13.5963415 3.84634806,13.3795839 L4.36913756,10.3314872 C4.4247755,10.0070931 4.31722701,9.67609292 4.08154093,9.44635576 L1.86696906,7.28768171 C1.47148548,6.9021805 1.46339318,6.26906724 1.84889439,5.87358366 C2.00240299,5.71610002 2.20354541,5.61361285 2.42118244,5.58198833 L5.48164548,5.13727702 C5.80735564,5.08994857 6.08892123,4.88537919 6.23458324,4.59023572 L7.60326392,1.81698575 C7.84768622,1.32173209 8.44731205,1.11839309 8.94256571,1.36281539 C9.13977832,1.46014562 9.29940584,1.61977315 9.39673608,1.81698575 Z" id="path-1"></path>
        <mask id="mask-collect_icon_111" maskContentUnits="userSpaceOnUse" maskUnits="objectBoundingBox" x="0" y="0" width="17" height="17" fill="white">
            <use xlink:href="#path-1"></use>
        </mask>
    </defs>
    <g id="在线翻译" stroke="none" stroke-width="1" fill="none" fill-rule="evenodd">
        <g id="知识门户-搜索结果（语料）" transform="translate(-1132.000000, -399.000000)">
            <g id="编组-6" transform="translate(582.000000, 311.000000)">
                <g id="编组-3" transform="translate(494.000000, 88.000000)">
                    <g id="collect_icon" transform="translate(56.000000, 0.000000)">
                        <use stroke="#999999" mask="url(#mask-collect_icon_111)" stroke-width="2" stroke-dasharray="0,0" xlink:href="#path-1"></use>
                        <path d="M0,0 L17,0 L17,17 L0,17 L0,0 Z" id="Rectangle-115" fill="#C4C4C4" opacity="0"></path>
                    </g>
                </g>
            </g>
        </g>
    </g>
</svg>