<?xml version="1.0" encoding="UTF-8"?>
<svg width="17px" height="17px" viewBox="0 0 17 17" version="1.1" xmlns="http://www.w3.org/2000/svg" xmlns:xlink="http://www.w3.org/1999/xlink">
    <title>下载</title>
    <g id="在线翻译" stroke="none" stroke-width="1" fill="none" fill-rule="evenodd">
        <g id="知识门户-搜索结果（语料）" transform="translate(-1076.000000, -399.000000)">
            <g id="编组-6" transform="translate(582.000000, 311.000000)">
                <g id="download_icon" transform="translate(494.000000, 88.000000)">
                    <path d="M0,0 L17,0 L17,17 L0,17 L0,0 Z" id="Rectangle-115" fill="#C4C4C4" opacity="0"></path>
                    <path d="M3,10.5 L3,12.5 C3,12.7761424 3.22385764,13 3.5,13 L13.5,13 C13.7761421,13 14,12.7761426 14,12.5 L14,10.5 C14,10.2238576 14.2238579,10 14.5,10 C14.7761421,10 15,10.2238576 15,10.5 L15,12.5 C15,13.3284268 14.3284273,14 13.5,14 L3.5,14 C2.67157292,14 2,13.3284271 2,12.5 L2,10.5 C2,10.2238576 2.22385761,10 2.5,10 C2.77614239,10 3,10.2238576 3,10.5 Z" id="Vector-11-(Stroke)" fill="#999999"></path>
                    <path d="M9,2.5 L9,10.1482105 L11.1203809,7.67444372 C11.3000917,7.46478081 11.6157417,7.44049978 11.8254046,7.62021112 C12.0350676,7.79992199 12.0593486,8.11557198 11.8796372,8.32523489 L8.87963724,11.8252344 C8.78464627,11.9360571 8.64597154,11.9998388 8.5,11.9998388 C8.35404658,11.9998388 8.21537185,11.9360571 8.12038088,11.8252344 L5.12038078,8.32523489 C4.94066971,8.11557198 4.96495043,7.79992199 5.17461334,7.62021112 C5.38427624,7.44049978 5.69992621,7.46478081 5.8796373,7.67444372 L8,10.1482105 L8,2.5 C8,2.22385761 8.2238667,2 8.5,2 C8.77615142,2 9,2.22385761 9,2.5 Z" id="Vector-12-(Stroke)" fill="#999999"></path>
                </g>
            </g>
        </g>
    </g>
</svg>