<?xml version="1.0" encoding="UTF-8"?>
<svg width="16px" height="14px" viewBox="0 0 16 14" version="1.1" xmlns="http://www.w3.org/2000/svg" xmlns:xlink="http://www.w3.org/1999/xlink">
    <title>编组</title>
    <g id="在线翻译" stroke="none" stroke-width="1" fill="none" fill-rule="evenodd">
        <g id="个人术语" transform="translate(-278.000000, -210.000000)" fill-rule="nonzero">
            <g id="编组-3" transform="translate(252.000000, 199.000000)">
                <g id="编组" transform="translate(26.000000, 11.000000)">
                    <path d="M15.2953729,14 L0.7046271,14 C0.314947368,14 0,13.6926292 0,13.3123287 L0,2.08373876 C0,1.7034382 0.314947368,1.39606742 0.7046271,1.39606742 L15.2953729,1.39606742 C15.6850526,1.39606742 16,1.7034382 16,2.08373876 L16,13.3123287 C16,13.6908989 15.6832788,14 15.2953729,14 Z" id="路径" fill="#FFE9B4"></path>
                    <path d="M8.00895857,4.71910112 L0,4.71910112 L0,0.774129213 C0,0.346008427 0.315305711,0 0.705415454,0 L6.18662486,0 C6.49838298,0 6.77269429,0.222859551 6.86176036,0.551269663 L8.00895857,4.71910112 Z" id="路径" fill="#FFB02C"></path>
                    <path d="M15.2953729,14 L0.7046271,14 C0.314947368,14 0,13.6543258 0,13.226618 L0,3.23124719 C0,2.80353933 0.314947368,2.45786517 0.7046271,2.45786517 L15.2953729,2.45786517 C15.6850526,2.45786517 16,2.80353933 16,3.23124719 L16,13.226618 C16,13.6523596 15.6832788,14 15.2953729,14 Z" id="路径" fill="#FFCA28"></path>
                </g>
            </g>
        </g>
    </g>
</svg>