<?xml version="1.0" encoding="UTF-8"?>
<svg width="16px" height="16px" viewBox="0 0 16 16" version="1.1" xmlns="http://www.w3.org/2000/svg" xmlns:xlink="http://www.w3.org/1999/xlink">
    <title>编组</title>
    <g id="在线翻译" stroke="none" stroke-width="1" fill="none" fill-rule="evenodd">
        <g id="段落分配-编辑详情" transform="translate(-404.000000, -213.000000)">
            <g id="编组" transform="translate(404.000000, 213.000000)">
                <rect id="矩形" fill-opacity="0.01" fill="#FFFFFF" fill-rule="nonzero" x="0" y="0" width="16" height="16"></rect>
                <path d="M6.66666667,4.66666667 L6.66666667,1.66666667 C6.66666667,1.48257333 6.51743333,1.33333333 6.33333333,1.33333333 L1.66666667,1.33333333 C1.48257333,1.33333333 1.33333333,1.48257333 1.33333333,1.66666667 L1.33333333,14.3333333 C1.33333333,14.5174333 1.48257333,14.6666667 1.66666667,14.6666667 L6.33333333,14.6666667 C6.51743333,14.6666667 6.66666667,14.5174333 6.66666667,14.3333333 L6.66666667,11.3333333" id="路径" stroke="#333333" stroke-width="1.33333333"></path>
                <path d="M9.33333333,11.3333333 L9.33333333,14.3333333 C9.33333333,14.5174333 9.48256667,14.6666667 9.66666667,14.6666667 L14.3333333,14.6666667 C14.5174333,14.6666667 14.6666667,14.5174333 14.6666667,14.3333333 L14.6666667,1.66666667 C14.6666667,1.48257333 14.5174333,1.33333333 14.3333333,1.33333333 L9.66666667,1.33333333 C9.48256667,1.33333333 9.33333333,1.48257333 9.33333333,1.66666667 L9.33333333,4.66666667" id="路径" stroke="#333333" stroke-width="1.33333333"></path>
                <line x1="9.33333333" y1="8" x2="14.6666667" y2="8" id="路径" stroke="#333333" stroke-width="1.33333333"></line>
                <line x1="1.66666667" y1="8" x2="6.66666667" y2="8" id="路径" stroke="#333333" stroke-width="1.33333333"></line>
                <polyline id="路径" stroke="#333333" stroke-width="1.33333333" points="10.9161667 9.6061 10.3858333 9.0758 9.3252 8.01513333 10.3858333 6.95446667 10.9161667 6.42413333"></polyline>
                <polyline id="路径" stroke="#333333" stroke-width="1.33333333" points="5.125 9.6061 5.65533333 9.0758 6.716 8.01513333 5.65533333 6.95446667 5.125 6.42413333"></polyline>
            </g>
        </g>
    </g>
</svg>