<?xml version="1.0" encoding="UTF-8"?>
<svg width="18px" height="18px" viewBox="0 0 18 18" version="1.1" xmlns="http://www.w3.org/2000/svg" xmlns:xlink="http://www.w3.org/1999/xlink">
    <title>编组</title>
    <g id="在线翻译" stroke="none" stroke-width="1" fill="none" fill-rule="evenodd">
        <g id="标签管理" transform="translate(-1353.000000, -106.000000)" fill="#FFFFFF" fill-rule="nonzero">
            <g id="编组" transform="translate(1353.000000, 106.000000)">
                <path d="M17.5067993,17.5054966 C16.847165,18.1648345 15.7779627,18.1648345 15.1183284,17.5054966 L11.9818161,14.4653816 L12.7668961,13.6578456 L15.9096392,16.7038449 C16.0690335,16.8687539 16.3126723,16.9202191 16.5251487,16.8338624 C16.737625,16.7475058 16.8762708,16.5406689 16.8754122,16.3113264 C16.8761629,16.1621392 16.8170607,16.0188802 16.7113346,15.9136158 L13.6592842,12.7637756 L14.4665182,11.9828921 L17.5126839,15.1254635 C18.1647262,15.7857916 18.1620989,16.8484005 17.5067993,17.5054966 L17.5067993,17.5054966 Z M7.31252862,14.6242581 C3.27397564,14.6242581 0,11.3505767 0,7.31224443 C0,3.27391212 3.27374488,0 7.31229786,0 C11.3508508,0 14.6248661,3.27345061 14.6250572,7.31178292 C14.620479,11.3482625 11.3492288,14.619334 7.31252862,14.623912 L7.31252862,14.6242581 Z M7.26925922,1.38385287 C4.88914515,1.38385287 2.74339244,2.81752065 1.83256222,5.01633917 C0.921732004,7.21515768 1.42519669,9.74610728 3.10819149,11.4290101 C4.79118628,13.1119129 7.32227418,13.6153501 9.52121285,12.7045697 C11.7201515,11.7937892 13.1538976,9.64815376 13.1538976,7.26816975 C13.150273,4.01985373 10.5177527,1.38747727 7.26925922,1.38385287 L7.26925922,1.38385287 Z M4.1330931,10.491737 C2.37842653,8.73358952 2.37842653,5.88686109 4.1330931,4.12871363 L4.92925006,4.92482708 C3.61368858,6.24358521 3.61368858,8.37824994 4.92925006,9.69700807 L4.1330931,10.491737 Z" id="形状"></path>
            </g>
        </g>
    </g>
</svg>