<?xml version="1.0" encoding="UTF-8"?>
<svg width="49px" height="32px" viewBox="0 0 49 32" version="1.1" xmlns="http://www.w3.org/2000/svg" xmlns:xlink="http://www.w3.org/1999/xlink">
    <title>编组</title>
    <g id="在线翻译" stroke="none" stroke-width="1" fill="none" fill-rule="evenodd">
        <g id="企业语料-新建语料、提交提示" transform="translate(-1003.000000, -555.000000)" fill="#C2C2C2" fill-rule="nonzero">
            <g id="编组" transform="translate(1003.000000, 555.000000)">
                <path d="M38.336375,10.0103349 C35.966,4.14009569 30.2176875,0 23.5046875,0 C14.9786875,0 8.0206875,6.66028708 7.5306875,15.0599043 C3.29525,15.5406699 0,19.1326316 0,23.4993301 C0,28.1936842 3.8066875,32 8.5015,32 C8.5015,32 14.8561875,32 20.9995625,32 L20.9995625,24.9998086 L13.9986875,24.9998086 L24.5,11.002488 L35.0013125,24.9998086 L28.0004375,24.9998086 L28.0004375,32 C33.032125,32 38.0025625,32 38.0025625,32 C44.0785625,32 49,27.0729187 49,21.0005742 C49,15.0384689 44.2561875,10.1879426 38.336375,10.0103349 Z" id="路径"></path>
            </g>
        </g>
    </g>
</svg>